<svg xmlns="http://www.w3.org/2000/svg" xmlns:xlink="http://www.w3.org/1999/xlink" xml:space="preserve" viewBox="0 0 395.36 406.66"><defs><linearGradient id="a" x1=".5" x2=".5" y1="0" y2="1"><stop offset="0%" stop-color="#34AADC"/><stop offset="100%" stop-color="#007AFF"/></linearGradient><linearGradient xlink:href="#a" id="b" x1="-353.06" x2="-236.91" y1="92.66" y2="517.74" gradientTransform="matrix(1.00028 0 0 .79057 1072.4 -246.35)" gradientUnits="userSpaceOnUse" spreadMethod="repeat"/></defs><g stroke="#000" stroke-width=".89"><path fill="#ff9d00" d="M394.33 293.05 251.55 405.66c-.57.45-1.43.68-2 .45l-195.02-41.3c-.86-.22-1.43-.67-1.43-1.12L.56 209.77c-.29-.68 0-1.13.57-1.58l142.76-112.6c.57-.45 1.43-.68 2-.45l195.03 41.3c.85.22 1.43.67 1.43 1.12l52.25 153.92c.57.68.29 1.13-.28 1.58z"/><path fill="#ffb500" d="M394.33 245.76 251.55 358.37c-.57.46-1.43.68-2 .46l-195.02-41.3c-.86-.23-1.43-.68-1.43-1.13L.56 162.48c-.29-.67 0-1.13.57-1.58L143.89 48.29c.57-.45 1.43-.68 2-.45l195.03 41.3c.85.22 1.43.67 1.43 1.12l52.26 153.93c.57.68.29 1.13-.28 1.58z"/><path fill="url(#b)" d="M977.44 38.88 834.66 151.49c-.57.46-1.43.68-2 .46l-195.02-41.3c-.86-.23-1.43-.68-1.43-1.13L583.67-44.4c-.29-.67 0-1.13.57-1.58L727-158.59c.57-.45 1.43-.68 2-.45l195.03 41.3c.85.22 1.43.67 1.43 1.13L977.72 37.3c.57.68.29 1.13-.28 1.58z" transform="translate(-583.11 159.59)"/></g><path fill="#fff" d="m161.09 44.53-3.78 37 10.4-2.62 14.42 43.95a38.98 38.98 0 0 0-17.35 12.3l-45-22.34 5.2-8.41-41.44-5 26.72 28.8 5.22-8.42 44.96 22.32a31.98 31.98 0 0 0-2.4 19.74l-49.18 12.37-3.04-9.3-32.96 22.53 41.57 3.75-3.04-9.3 49.17-12.37c3 6.45 7.93 11.8 14 15.64l-24.58 39.81-9.52-4.7-5.2 36.82 32.09-23.5-9.5-4.71 24.6-39.84a44.72 44.72 0 0 0 22.17 2.35l14.4 43.93-10.4 2.62 25.62 29.6 3.8-37-10.4 2.62-14.42-43.93a39.03 39.03 0 0 0 17.39-12.3l44.96 22.31-5.19 8.43 41.4 5.02-26.71-28.83-5.2 8.41-45-22.33a31.95 31.95 0 0 0 2.42-19.72l49.2-12.37 3.04 9.29 32.97-22.5-41.58-3.78 3.04 9.3-49.2 12.37a37.31 37.31 0 0 0-13.98-15.56l24.6-39.84 9.5 4.71L260.06 55l-32.05 23.5 9.5 4.73-24.58 39.81a44.77 44.77 0 0 0-22.19-2.35l-14.42-43.95 10.4-2.62z"/></svg>